<?xml version="1.0" encoding="UTF-8" standalone="no"?><!DOCTYPE svg PUBLIC "-//W3C//DTD SVG 1.1//EN" "http://www.w3.org/Graphics/SVG/1.1/DTD/svg11.dtd"><svg width="100%" height="100%" viewBox="0 0 4167 4167" version="1.1" xmlns="http://www.w3.org/2000/svg" xmlns:xlink="http://www.w3.org/1999/xlink" xml:space="preserve" xmlns:serif="http://www.serif.com/" style="fill-rule:evenodd;clip-rule:evenodd;stroke-linecap:round;stroke-linejoin:round;stroke-miterlimit:10;"><g><path id="XMLID_5_" d="M2425.83,2556.67l-699.583,-0c-12.5,-0 -22.917,-10.417 -22.917,-22.917c0,-12.5 10.417,-22.917 22.917,-22.917l699.583,0c12.5,0 22.917,10.417 22.917,22.917c0,12.5 -10.417,22.917 -22.917,22.917Z" style="fill:#1c1c1c;fill-opacity:0.32;fill-rule:nonzero;"/><path id="XMLID_3_" d="M2914.58,2731.25l-1465.83,0c-12.5,0 -22.917,-10.417 -22.917,-22.917c0,-12.5 10.417,-22.916 22.917,-22.916l1465.83,-0c12.5,-0 22.917,10.416 22.917,22.916c0,12.917 -10.417,22.917 -22.917,22.917Z" style="fill:#1c1c1c;fill-opacity:0.32;fill-rule:nonzero;"/><path id="XMLID_7_" d="M2809.17,2104.58l-1466.67,0l0,-785c0,-36.25 29.167,-65.416 65.417,-65.416l1333.75,-0c37.083,-0 67.5,30.416 67.5,67.5l-0,782.916Z" style="fill:#383939;fill-rule:nonzero;"/><path id="XMLID_30_" d="M1367.5,2042.08l0,-725c0,-20.833 16.667,-37.5 37.5,-37.5l1341.67,0c20.833,0 37.5,16.667 37.5,37.5l-0,725c-0,20.834 -16.667,37.5 -37.5,37.5l-1341.67,0c-20.417,0 -37.5,-17.083 -37.5,-37.5Z" style="fill:#3a3a3a;fill-rule:nonzero;"/><path id="XMLID_18_" d="M2809.17,2104.58l-1466.67,0l0,-785c0,-36.25 29.167,-65.416 65.417,-65.416l1333.75,-0c37.083,-0 67.5,30.416 67.5,67.5l-0,782.916Z" style="fill:none;fill-rule:nonzero;stroke:#383939;stroke-width:25px;"/><path id="XMLID_10_" d="M2725.77,2020.92l0,-683.333l-1300,-0l0,683.333l1300,0Z" style="fill:#4f4f4f;"/><path id="XMLID_19_" d="M2741.25,2304.58l-1332.92,0c-36.25,0 -65.833,-29.583 -65.833,-65.833l0,-134.167l1466.67,0l-0,132.084c-0,37.083 -30.417,67.916 -67.917,67.916Z" style="fill:#d4e8dc;fill-rule:nonzero;"/><path id="XMLID_4_" d="M1408.33,2271.25c-17.916,0 -32.5,-14.583 -32.5,-32.5l0,-120.417l1400,0l0,118.334c0,19.166 -15.416,34.583 -34.583,34.583l-1332.92,0Z" style="fill:#ebf2ee;fill-rule:nonzero;"/><path id="XMLID_6_" d="M2741.25,2304.58l-1332.92,0c-36.25,0 -65.833,-29.583 -65.833,-65.833l0,-134.167l1466.67,0l-0,132.084c-0,37.083 -30.417,67.916 -67.917,67.916Z" style="fill:none;fill-rule:nonzero;stroke:#383939;stroke-width:25px;"/><path id="XMLID_22_" d="M2296.67,2454.58l-441.667,0l65.417,-150l310.833,0l65.417,150Z" style="fill:#cad8d0;fill-rule:nonzero;"/><path id="XMLID_27_" d="M2260.42,2371.25l-29.167,-66.667l-310.833,0l-29.167,66.667l369.167,0Z" style="fill:#a1ada6;fill-rule:nonzero;"/><path id="XMLID_1_" d="M2296.67,2454.58l-441.667,0l65.417,-150l310.833,0l65.417,150Z" style="fill:none;fill-rule:nonzero;stroke:#383939;stroke-width:25px;"/><path id="XMLID_23_" d="M2380,2521.25l-608.333,0l6.25,-22.083c7.5,-26.25 32.083,-44.584 60.416,-44.584l475,0c28.334,0 53.334,18.334 60.417,44.584l6.25,22.083Z" style="fill:#daede2;fill-rule:nonzero;"/><path id="XMLID_9_" d="M2380,2521.25l-608.333,0l6.25,-22.083c7.5,-26.25 32.083,-44.584 60.416,-44.584l475,0c28.334,0 53.334,18.334 60.417,44.584l6.25,22.083Z" style="fill:none;fill-rule:nonzero;stroke:#383939;stroke-width:25px;"/><path id="XMLID_24_" d="M1533.75,2691.67l1057.08,-0c15.417,-0 27.917,-12.5 27.917,-27.917c0,-15.417 -12.5,-27.917 -27.917,-27.917l-1057.08,0c-15.417,0 -27.917,12.5 -27.917,27.917c-0.416,15.417 12.084,27.917 27.917,27.917Z" style="fill:#daede2;fill-rule:nonzero;"/><path id="XMLID_8_" d="M1533.75,2691.67l1057.08,-0c15.417,-0 27.917,-12.5 27.917,-27.917c0,-15.417 -12.5,-27.917 -27.917,-27.917l-1057.08,0c-15.417,0 -27.917,12.5 -27.917,27.917c-0.416,15.417 12.084,27.917 27.917,27.917Z" style="fill:none;fill-rule:nonzero;stroke:#383939;stroke-width:25px;"/><path id="XMLID_11_" d="M1857.92,2635.42l508.333,-0l0,-16.667c0,-13.75 -11.25,-25 -25,-25l-458.333,0c-13.75,0 -25,11.25 -25,25l-0,16.667Z" style="fill:#383939;fill-rule:nonzero;"/><path id="XMLID_13_" d="M1757.08,2635.42l88.334,-0l-0,-16.667c-0,-13.75 -11.25,-25 -25,-25l-38.334,0c-13.75,0 -25,11.25 -25,25l0,16.667Z" style="fill:#383939;fill-rule:nonzero;"/><path id="XMLID_14_" d="M1654.17,2635.42l88.333,-0l-0,-16.667c-0,-13.75 -11.25,-25 -25,-25l-38.333,0c-13.75,0 -25,11.25 -25,25l-0,16.667Z" style="fill:#383939;fill-rule:nonzero;"/><path id="XMLID_17_" d="M2484.17,2635.42l88.333,-0l0,-16.667c0,-13.75 -11.25,-25 -25,-25l-38.333,0c-13.75,0 -25,11.25 -25,25l-0,16.667Z" style="fill:#383939;fill-rule:nonzero;"/><path id="XMLID_16_" d="M2381.67,2635.42l88.333,-0l0,-16.667c0,-13.75 -11.25,-25 -25,-25l-38.333,0c-13.75,0 -25,11.25 -25,25l-0,16.667Z" style="fill:#383939;fill-rule:nonzero;"/><path id="XMLID_15_" d="M1551.67,2635.42l88.333,-0l-0,-16.667c-0,-13.75 -11.25,-25 -25,-25l-38.333,0c-13.75,0 -25,11.25 -25,25l-0,16.667Z" style="fill:#383939;fill-rule:nonzero;"/><path id="XMLID_25_" d="M2869.58,2691.67c-0.416,-31.667 -35,-63.334 -96.25,-63.334c-60.833,0 -95.833,31.667 -96.25,63.334l192.5,-0Z" style="fill:#daede2;fill-rule:nonzero;"/><path id="XMLID_20_" d="M2869.58,2691.67c-0.416,-31.667 -35,-63.334 -96.25,-63.334c-60.833,0 -95.833,31.667 -96.25,63.334l192.5,-0Z" style="fill:none;fill-rule:nonzero;stroke:#383939;stroke-width:25px;"/><path id="XMLID_21_" d="M2135,2194.17c-19.167,-0 -35,-14.167 -37.5,-32.917l-0.833,0c-23.75,0 -42.917,19.167 -42.917,42.917c0,23.75 19.167,42.916 42.917,42.916c23.75,0 42.916,-19.166 42.916,-42.916c0,-3.75 -0.416,-7.084 -1.25,-10.417c-1.25,0.417 -2.083,0.417 -3.333,0.417Z" style="fill:#383939;fill-rule:nonzero;"/><path id="XMLID_31_" d="M2121.25,1672.92c-12.083,-0 -22.5,-9.167 -23.75,-20.834l-0.417,0c-15,0 -27.5,12.5 -27.5,27.5c0,15 12.5,27.5 27.5,27.5c15,0 27.5,-12.5 27.5,-27.5c0,-2.5 -0.416,-4.583 -0.833,-6.666l-2.5,-0Z" style="fill:#e7f7f7;fill-rule:nonzero;"/><path id="XMLID_28_" d="M1573.33,2021.25l159.167,0l348.333,-683.333l-159.166,-0l-348.334,683.333Z" style="fill:#c2d3c9;fill-opacity:0.16;fill-rule:nonzero;"/><path id="XMLID_29_" d="M1861.25,2021.25l348.333,-683.333l-59.583,-0l-348.333,683.333l59.583,0Z" style="fill:#c2d3c9;fill-opacity:0.16;fill-rule:nonzero;"/><path id="XMLID_34_" d="M2172.92,1783.33l-167.5,0c-3.334,0 -6.25,-2.916 -6.25,-6.25c-0,-3.333 2.916,-6.25 6.25,-6.25l167.5,0c3.333,0 6.25,2.917 6.25,6.25c-0,3.334 -2.917,6.25 -6.25,6.25Z" style="fill:#c2d3c9;fill-rule:nonzero;"/><path id="XMLID_37_" d="M2063.33,1770.83l-57.916,0c-3.334,0 -6.25,2.917 -6.25,6.25c-0,3.334 2.916,6.25 6.25,6.25l57.916,0l0,-12.5Z" style="fill:#c2d3c9;fill-rule:nonzero;"/></g><g id="XMLID_32_"></g></svg>