<?xml version="1.0" encoding="UTF-8" standalone="no"?><!DOCTYPE svg PUBLIC "-//W3C//DTD SVG 1.1//EN" "http://www.w3.org/Graphics/SVG/1.1/DTD/svg11.dtd"><svg width="100%" height="100%" viewBox="0 0 4167 4167" version="1.1" xmlns="http://www.w3.org/2000/svg" xmlns:xlink="http://www.w3.org/1999/xlink" xml:space="preserve" xmlns:serif="http://www.serif.com/" style="fill-rule:evenodd;clip-rule:evenodd;stroke-linecap:round;stroke-linejoin:round;stroke-miterlimit:10;"><g><path id="XMLID_1313_" d="M3490.83,2776.25l-2815,0c-20.833,0 -37.5,-16.667 -37.5,-37.5c0,-20.833 16.667,-37.5 37.5,-37.5l2815.42,0c20.833,0 37.5,16.667 37.5,37.5c-0.417,20.833 -17.083,37.5 -37.917,37.5Z" style="fill:#848484;fill-opacity:0.28;fill-rule:nonzero;"/><g id="XMLID_45_"><path id="XMLID_41_" d="M3368.75,2391.25c0,-155 -117.5,-282.5 -269.583,-297.083l-0,-35l-91.25,-0l-0,669.583l91.25,0l-0,-40.417c151.666,-14.583 269.583,-142.083 269.583,-297.083Zm-270,200.833l0,-401.25c97.5,14.167 174.167,98.75 174.167,200.834c-0,101.666 -76.667,186.25 -174.167,200.416Z" style="fill:#f09f54;fill-rule:nonzero;"/><path id="XMLID_222_" d="M3098.75,2094.17l0,-35l-91.25,-0l0,669.583l91.25,0l0,-40.417c152.083,-14.583 269.583,-141.666 269.583,-297.083c0.417,-155 -117.5,-282.5 -269.583,-297.083Zm0,563.333l0,34.583l-85.417,0l0,-602.5l85.417,0l0,35.417c133.75,12.917 241.667,127.083 241.667,266.25c0.416,139.167 -107.5,253.333 -241.667,266.25Z" style="fill:#f09f54;fill-opacity:0.29;fill-rule:nonzero;"/><path id="XMLID_48_" d="M3368.75,2391.25c0,-155 -117.5,-282.5 -269.583,-297.083l-0,-35l-91.25,-0l-0,669.583l91.25,0l-0,-40.417c151.666,-14.583 269.583,-142.083 269.583,-297.083Zm-270,200.833l0,-401.25c97.5,14.167 174.167,98.75 174.167,200.834c-0,101.666 -76.667,186.25 -174.167,200.416Z" style="fill:none;fill-rule:nonzero;stroke:#444e59;stroke-width:16.67px;"/><g id="XMLID_49_"><g id="XMLID_67_"><path id="XMLID_68_" d="M3044.17,2661.67l-36.667,-0" style="fill:none;fill-rule:nonzero;stroke:#444e59;stroke-width:12.5px;"/></g><g id="XMLID_65_"><path id="XMLID_66_" d="M3044.17,2595l-36.667,0" style="fill:none;fill-rule:nonzero;stroke:#444e59;stroke-width:12.5px;"/></g><g id="XMLID_63_"><path id="XMLID_64_" d="M3044.17,2527.92l-36.667,-0" style="fill:none;fill-rule:nonzero;stroke:#444e59;stroke-width:12.5px;"/></g><g id="XMLID_61_"><path id="XMLID_62_" d="M3044.17,2460.83l-36.667,0" style="fill:none;fill-rule:nonzero;stroke:#444e59;stroke-width:12.5px;"/></g><g id="XMLID_59_"><path id="XMLID_60_" d="M3044.17,2394.17l-36.667,-0" style="fill:none;fill-rule:nonzero;stroke:#444e59;stroke-width:12.5px;"/></g><g id="XMLID_56_"><path id="XMLID_57_" d="M3044.17,2327.08l-36.667,0" style="fill:none;fill-rule:nonzero;stroke:#444e59;stroke-width:12.5px;"/></g><g id="XMLID_54_"><path id="XMLID_55_" d="M3044.17,2260l-36.667,0" style="fill:none;fill-rule:nonzero;stroke:#444e59;stroke-width:12.5px;"/></g><g id="XMLID_52_"><path id="XMLID_53_" d="M3044.17,2192.92l-36.667,-0" style="fill:none;fill-rule:nonzero;stroke:#444e59;stroke-width:12.5px;"/></g><g id="XMLID_50_"><path id="XMLID_51_" d="M3044.17,2126.25l-36.667,0" style="fill:none;fill-rule:nonzero;stroke:#444e59;stroke-width:12.5px;"/></g></g></g><g id="XMLID_212_"><rect id="XMLID_207_" x="2805.42" y="1720.42" width="137.917" height="1006.67" style="fill:#f09f54;"/><rect id="XMLID_208_" x="2805.42" y="1720.42" width="137.917" height="1006.67" style="fill:#f09f54;"/><rect id="XMLID_209_" x="2883.33" y="1720.42" width="60" height="1006.67" style="fill:#f09f54;fill-opacity:0.29;"/><rect id="XMLID_121_" x="2805.42" y="1720.42" width="137.917" height="1006.67" style="fill:none;stroke:#444e59;stroke-width:16.67px;"/><g id="XMLID_203_"><g id="XMLID_266_"><path id="XMLID_269_" d="M2853.33,2625.42l-47.916,-0" style="fill:none;fill-rule:nonzero;stroke:#444e59;stroke-width:12.5px;"/><path id="XMLID_268_" d="M2835,2673.33l-29.583,0" style="fill:none;fill-rule:nonzero;stroke:#444e59;stroke-width:12.5px;"/></g><g id="XMLID_262_"><path id="XMLID_265_" d="M2853.33,2529.58l-47.916,0" style="fill:none;fill-rule:nonzero;stroke:#444e59;stroke-width:12.5px;"/><path id="XMLID_264_" d="M2835,2577.5l-29.583,0" style="fill:none;fill-rule:nonzero;stroke:#444e59;stroke-width:12.5px;"/></g><g id="XMLID_258_"><path id="XMLID_261_" d="M2853.33,2433.75l-47.916,0" style="fill:none;fill-rule:nonzero;stroke:#444e59;stroke-width:12.5px;"/><path id="XMLID_260_" d="M2835,2481.67l-29.583,-0" style="fill:none;fill-rule:nonzero;stroke:#444e59;stroke-width:12.5px;"/></g><g id="XMLID_254_"><path id="XMLID_257_" d="M2853.33,2337.5l-47.916,0" style="fill:none;fill-rule:nonzero;stroke:#444e59;stroke-width:12.5px;"/><path id="XMLID_256_" d="M2835,2385.42l-29.583,-0" style="fill:none;fill-rule:nonzero;stroke:#444e59;stroke-width:12.5px;"/></g><g id="XMLID_249_"><path id="XMLID_253_" d="M2853.33,2241.67l-47.916,-0" style="fill:none;fill-rule:nonzero;stroke:#444e59;stroke-width:12.5px;"/><path id="XMLID_251_" d="M2835,2289.58l-29.583,0" style="fill:none;fill-rule:nonzero;stroke:#444e59;stroke-width:12.5px;"/></g><g id="XMLID_245_"><path id="XMLID_248_" d="M2853.33,2145.83l-47.916,0" style="fill:none;fill-rule:nonzero;stroke:#444e59;stroke-width:12.5px;"/><path id="XMLID_247_" d="M2835,2193.75l-29.583,0" style="fill:none;fill-rule:nonzero;stroke:#444e59;stroke-width:12.5px;"/></g><g id="XMLID_223_"><path id="XMLID_244_" d="M2853.33,2050l-47.916,0" style="fill:none;fill-rule:nonzero;stroke:#444e59;stroke-width:12.5px;"/><path id="XMLID_243_" d="M2835,2097.92l-29.583,-0" style="fill:none;fill-rule:nonzero;stroke:#444e59;stroke-width:12.5px;"/></g><g id="XMLID_215_"><path id="XMLID_219_" d="M2853.33,1954.17l-47.916,-0" style="fill:none;fill-rule:nonzero;stroke:#444e59;stroke-width:12.5px;"/><path id="XMLID_218_" d="M2835,2002.08l-29.583,0" style="fill:none;fill-rule:nonzero;stroke:#444e59;stroke-width:12.5px;"/></g><g id="XMLID_118_"><path id="XMLID_210_" d="M2853.33,1858.33l-47.916,0" style="fill:none;fill-rule:nonzero;stroke:#444e59;stroke-width:12.5px;"/><path id="XMLID_141_" d="M2835,1906.25l-29.583,0" style="fill:none;fill-rule:nonzero;stroke:#444e59;stroke-width:12.5px;"/></g><g id="XMLID_36_"><path id="XMLID_113_" d="M2853.33,1762.5l-47.916,0" style="fill:none;fill-rule:nonzero;stroke:#444e59;stroke-width:12.5px;"/><path id="XMLID_112_" d="M2835,1810.42l-29.583,-0" style="fill:none;fill-rule:nonzero;stroke:#444e59;stroke-width:12.5px;"/></g></g></g><g id="XMLID_1_"><rect id="XMLID_93_" x="2550.42" y="1963.75" width="53.75" height="142.083" style="fill:#848484;"/><rect id="XMLID_237_" x="2550.42" y="1963.75" width="20" height="142.083" style="fill:#848484;fill-opacity:0.25;"/><rect id="XMLID_40_" x="2550.42" y="1963.75" width="53.75" height="142.083" style="fill:none;stroke:#444e59;stroke-width:16.67px;"/><rect id="XMLID_95_" x="2565" y="2106.25" width="24.583" height="68.75" style="fill:#fff;"/><rect id="XMLID_42_" x="2565" y="2106.25" width="24.583" height="68.75" style="fill:none;stroke:#444e59;stroke-width:16.67px;"/><g id="XMLID_16_"><path id="XMLID_98_" d="M2535.83,2236.25l-125,490.417l190,-483.75l-65,-6.667Z" style="fill:#fff;fill-rule:nonzero;"/><path id="XMLID_37_" d="M2535.83,2236.25l-125,490.417l190,-483.75l-65,-6.667Z" style="fill:none;fill-rule:nonzero;stroke:#444e59;stroke-width:16.67px;"/><path id="XMLID_97_" d="M2619.17,2236.25l125,490.417l-189.584,-483.75l64.584,-6.667Z" style="fill:#fff;fill-rule:nonzero;"/><path id="XMLID_38_" d="M2619.17,2236.25l125,490.417l-189.584,-483.75l64.584,-6.667Z" style="fill:none;fill-rule:nonzero;stroke:#444e59;stroke-width:16.67px;"/></g><circle id="XMLID_91_" cx="2577.5" cy="2249.17" r="83.333" style="fill:#71a850;"/><path id="XMLID_241_" d="M2517.5,2249.17c0,-42.084 31.25,-76.667 71.667,-82.5c-3.75,-0.417 -7.5,-0.834 -11.667,-0.834c-45.833,0 -83.333,37.5 -83.333,83.334c-0,45.833 37.5,83.333 83.333,83.333c3.75,0 7.917,-0.417 11.667,-0.833c-40.417,-5.834 -71.667,-40.417 -71.667,-82.5Z" style="fill:#71a850;fill-opacity:0.4;fill-rule:nonzero;"/><circle id="XMLID_39_" cx="2577.5" cy="2249.17" r="83.333" style="fill:none;stroke:#444e59;stroke-width:16.67px;"/><circle id="XMLID_94_" cx="2577.5" cy="2249.17" r="28.333" style="fill:#444e59;"/><circle id="XMLID_92_" cx="2577.5" cy="2249.17" r="28.333" style="fill:none;stroke:#444e59;stroke-width:16.67px;"/></g><path id="XMLID_75_" d="M2276.67,2725.83l-550,0c-32.084,0 -58.334,-26.25 -58.334,-58.333l0,-1133.33c0,-32.084 26.25,-58.334 58.334,-58.334l550,0c32.083,0 58.333,26.25 58.333,58.334l0,1133.33c0,32.083 -26.25,58.333 -58.333,58.333Z" style="fill:#848484;fill-rule:nonzero;"/><path id="XMLID_116_" d="M2276.67,1475.83l-35,0c32.083,0 58.333,26.25 58.333,58.334l0,1133.33c0,32.083 -26.25,58.333 -58.333,58.333l35.416,0c32.084,0 58.334,-26.25 58.334,-58.333l-0,-1133.33c-0.417,-32.5 -26.667,-58.334 -58.75,-58.334Z" style="fill:#848484;fill-opacity:0.28;fill-rule:nonzero;"/><path id="XMLID_81_" d="M1702.92,2667.5l-0,-1133.33c-0,-32.084 26.25,-58.334 58.333,-58.334l-34.583,0c-32.084,0 -58.334,26.25 -58.334,58.334l0,1133.33c0,32.083 26.25,58.333 58.334,58.333l34.583,0c-32.083,0 -58.333,-26.25 -58.333,-58.333Z" style="fill:#848484;fill-opacity:0.48;fill-rule:nonzero;"/><path id="XMLID_3_" d="M2276.67,2725.83l-550,0c-32.084,0 -58.334,-26.25 -58.334,-58.333l0,-1133.33c0,-32.084 26.25,-58.334 58.334,-58.334l550,0c32.083,0 58.333,26.25 58.333,58.334l0,1133.33c0,32.083 -26.25,58.333 -58.333,58.333Z" style="fill:none;fill-rule:nonzero;stroke:#444e59;stroke-width:16.67px;"/><path id="XMLID_77_" d="M2335.08,2565.37l-0,-933.334l-666.667,0l-0,933.334l666.667,-0Z" style="fill:#e9fbff;"/><path id="XMLID_5_" d="M2331.67,1932.92l-52.084,-0c-28.333,-0 -51.25,-22.917 -51.25,-51.25l0,-127.084c0,-28.333 22.917,-51.25 51.25,-51.25l52.084,0l-0,229.584Z" style="fill:#c9c9c9;fill-rule:nonzero;"/><path id="XMLID_2_" d="M1706.67,2447.92l-38.334,-0l0,-405.417l38.334,0c28.75,0 52.083,23.333 52.083,52.083l0,301.25c-0.417,28.75 -23.333,52.084 -52.083,52.084Z" style="fill:#c9c9c9;fill-rule:nonzero;"/><path id="XMLID_6_" d="M2335.08,2565.37l-0,-933.334l-666.667,0l-0,933.334l666.667,-0Z" style="fill:none;stroke:#444e59;stroke-width:16.67px;"/><g id="XMLID_4_"><path id="XMLID_9_" d="M2093.33,1559.17l29.167,-0" style="fill:none;fill-rule:nonzero;stroke:#444e59;stroke-width:20.83px;"/><path id="XMLID_7_" d="M1880.83,1559.17l166.667,-0" style="fill:none;fill-rule:nonzero;stroke:#444e59;stroke-width:20.83px;"/></g><g id="XMLID_228_"><circle id="XMLID_8_" cx="2001.67" cy="2635.83" r="45.833" style="fill:#848484;fill-opacity:0.29;"/><circle id="XMLID_78_" cx="2001.67" cy="2635.83" r="35" style="fill:#444e59;"/></g><g id="XMLID_14_" opacity="0.3"><g id="XMLID_32_"><g id="XMLID_58_"><path d="M1849.58,2453.75l-66.666,0c-18.334,0 -33.334,-15 -33.334,-33.333l0,-66.667c0,-18.333 15,-33.333 33.334,-33.333l66.666,-0c18.334,-0 33.334,15 33.334,33.333l-0,66.667c-0,18.333 -15,33.333 -33.334,33.333Z" style="fill:none;fill-rule:nonzero;stroke:#444e59;stroke-width:8.33px;stroke-miterlimit:4;stroke-dasharray:17,17;"/></g><g id="XMLID_35_"><path d="M2218.33,2453.75l-66.666,0c-18.334,0 -33.334,-15 -33.334,-33.333l0,-66.667c0,-18.333 15,-33.333 33.334,-33.333l66.666,-0c18.334,-0 33.334,15 33.334,33.333l-0,66.667c-0,18.333 -15,33.333 -33.334,33.333Z" style="fill:none;fill-rule:nonzero;stroke:#444e59;stroke-width:8.33px;stroke-miterlimit:4;stroke-dasharray:17,17;"/></g><g id="XMLID_34_"><path d="M2035,2453.75l-66.667,0c-18.333,0 -33.333,-15 -33.333,-33.333l0,-66.667c0,-18.333 15,-33.333 33.333,-33.333l66.667,-0c18.333,-0 33.333,15 33.333,33.333l0,66.667c0,18.333 -15,33.333 -33.333,33.333Z" style="fill:none;fill-rule:nonzero;stroke:#444e59;stroke-width:8.33px;stroke-miterlimit:4;stroke-dasharray:17,17;"/></g></g><g id="XMLID_27_"><g id="XMLID_31_"><path d="M1849.58,2253.75l-66.666,0c-18.334,0 -33.334,-15 -33.334,-33.333l0,-66.667c0,-18.333 15,-33.333 33.334,-33.333l66.666,-0c18.334,-0 33.334,15 33.334,33.333l-0,66.667c-0,18.333 -15,33.333 -33.334,33.333Z" style="fill:none;fill-rule:nonzero;stroke:#444e59;stroke-width:8.33px;stroke-miterlimit:4;stroke-dasharray:17,17;"/></g><g id="XMLID_30_"><path d="M2218.33,2253.75l-66.666,0c-18.334,0 -33.334,-15 -33.334,-33.333l0,-66.667c0,-18.333 15,-33.333 33.334,-33.333l66.666,-0c18.334,-0 33.334,15 33.334,33.333l-0,66.667c-0,18.333 -15,33.333 -33.334,33.333Z" style="fill:none;fill-rule:nonzero;stroke:#444e59;stroke-width:8.33px;stroke-miterlimit:4;stroke-dasharray:17,17;"/></g><g id="XMLID_29_"><path d="M2035,2253.75l-66.667,0c-18.333,0 -33.333,-15 -33.333,-33.333l0,-66.667c0,-18.333 15,-33.333 33.333,-33.333l66.667,-0c18.333,-0 33.333,15 33.333,33.333l0,66.667c0,18.333 -15,33.333 -33.333,33.333Z" style="fill:none;fill-rule:nonzero;stroke:#444e59;stroke-width:8.33px;stroke-miterlimit:4;stroke-dasharray:17,17;"/></g></g><g id="XMLID_22_"><g id="XMLID_26_"><path d="M1849.58,2053.75l-66.666,0c-18.334,0 -33.334,-15 -33.334,-33.333l0,-66.667c0,-18.333 15,-33.333 33.334,-33.333l66.666,-0c18.334,-0 33.334,15 33.334,33.333l-0,66.667c-0,18.333 -15,33.333 -33.334,33.333Z" style="fill:none;fill-rule:nonzero;stroke:#444e59;stroke-width:8.33px;stroke-miterlimit:4;stroke-dasharray:17,17;"/></g><g id="XMLID_25_"><path d="M2218.33,2053.75l-66.666,0c-18.334,0 -33.334,-15 -33.334,-33.333l0,-66.667c0,-18.333 15,-33.333 33.334,-33.333l66.666,-0c18.334,-0 33.334,15 33.334,33.333l-0,66.667c-0,18.333 -15,33.333 -33.334,33.333Z" style="fill:none;fill-rule:nonzero;stroke:#444e59;stroke-width:8.33px;stroke-miterlimit:4;stroke-dasharray:17,17;"/></g><g id="XMLID_24_"><path d="M2035,2053.75l-66.667,0c-18.333,0 -33.333,-15 -33.333,-33.333l0,-66.667c0,-18.333 15,-33.333 33.333,-33.333l66.667,-0c18.333,-0 33.333,15 33.333,33.333l0,66.667c0,18.333 -15,33.333 -33.333,33.333Z" style="fill:none;fill-rule:nonzero;stroke:#444e59;stroke-width:8.33px;stroke-miterlimit:4;stroke-dasharray:17,17;"/></g></g><g id="XMLID_17_"><g id="XMLID_21_"><path d="M1849.58,1853.75l-66.666,0c-18.334,0 -33.334,-15 -33.334,-33.333l0,-66.667c0,-18.333 15,-33.333 33.334,-33.333l66.666,-0c18.334,-0 33.334,15 33.334,33.333l-0,66.667c-0,18.333 -15,33.333 -33.334,33.333Z" style="fill:none;fill-rule:nonzero;stroke:#444e59;stroke-width:8.33px;stroke-miterlimit:4;stroke-dasharray:17,17;"/></g><g id="XMLID_20_"><path d="M2218.33,1853.75l-66.666,0c-18.334,0 -33.334,-15 -33.334,-33.333l0,-66.667c0,-18.333 15,-33.333 33.334,-33.333l66.666,-0c18.334,-0 33.334,15 33.334,33.333l-0,66.667c-0,18.333 -15,33.333 -33.334,33.333Z" style="fill:none;fill-rule:nonzero;stroke:#444e59;stroke-width:8.33px;stroke-miterlimit:4;stroke-dasharray:17,17;"/></g><g id="XMLID_19_"><path d="M2035,1853.75l-66.667,0c-18.333,0 -33.333,-15 -33.333,-33.333l0,-66.667c0,-18.333 15,-33.333 33.333,-33.333l66.667,-0c18.333,-0 33.333,15 33.333,33.333l0,66.667c0,18.333 -15,33.333 -33.333,33.333Z" style="fill:none;fill-rule:nonzero;stroke:#444e59;stroke-width:8.33px;stroke-miterlimit:4;stroke-dasharray:17,17;"/></g></g></g><path id="XMLID_73_" d="M1849.58,2453.75l-66.666,0c-18.334,0 -33.334,-15 -33.334,-33.333l0,-66.667c0,-18.333 15,-33.333 33.334,-33.333l66.666,-0c18.334,-0 33.334,15 33.334,33.333l-0,66.667c-0,18.333 -15,33.333 -33.334,33.333Z" style="fill:#71a850;fill-rule:nonzero;"/><path id="XMLID_80_" d="M1849.58,2320.42l-66.666,-0c-13.334,-0 -25,7.916 -30,19.166l130,23.334l-0,-9.167c-0,-18.333 -15,-33.333 -33.334,-33.333Z" style="fill:#5f8c42;fill-opacity:0.52;fill-rule:nonzero;"/><path id="XMLID_76_" d="M1849.58,2453.75l-66.666,0c-18.334,0 -33.334,-15 -33.334,-33.333l0,-66.667c0,-18.333 15,-33.333 33.334,-33.333l66.666,-0c18.334,-0 33.334,15 33.334,33.333l-0,66.667c-0,18.333 -15,33.333 -33.334,33.333Z" style="fill:none;fill-rule:nonzero;stroke:#444e59;stroke-width:16.67px;"/><path id="XMLID_72_" d="M2035,2453.75l-66.667,0c-18.333,0 -33.333,-15 -33.333,-33.333l0,-66.667c0,-18.333 15,-33.333 33.333,-33.333l66.667,-0c18.333,-0 33.333,15 33.333,33.333l0,66.667c0,18.333 -15,33.333 -33.333,33.333Z" style="fill:#f09f54;fill-rule:nonzero;"/><path id="XMLID_79_" d="M2035,2320.42l-66.667,-0c-13.333,-0 -25,7.916 -30,19.166l130,23.334l0,-9.167c0,-18.333 -15,-33.333 -33.333,-33.333Z" style="fill:#d38444;fill-opacity:0.52;fill-rule:nonzero;"/><path id="XMLID_74_" d="M2035,2453.75l-66.667,0c-18.333,0 -33.333,-15 -33.333,-33.333l0,-66.667c0,-18.333 15,-33.333 33.333,-33.333l66.667,-0c18.333,-0 33.333,15 33.333,33.333l0,66.667c0,18.333 -15,33.333 -33.333,33.333Z" style="fill:none;fill-rule:nonzero;stroke:#444e59;stroke-width:16.67px;"/><g id="XMLID_33_"><path id="XMLID_70_" d="M2218.33,2253.75l-66.666,0c-18.334,0 -33.334,-15 -33.334,-33.333l0,-66.667c0,-18.333 15,-33.333 33.334,-33.333l66.666,-0c18.334,-0 33.334,15 33.334,33.333l-0,66.667c-0,18.333 -15,33.333 -33.334,33.333Z" style="fill:#2fa9ed;fill-rule:nonzero;"/></g><path id="XMLID_119_" d="M2218.33,2120.42l-66.666,-0c-13.334,-0 -25,7.916 -30,19.166l130,23.334l-0,-9.167c-0,-18.333 -15,-33.333 -33.334,-33.333Z" style="fill:#288fbc;fill-opacity:0.52;fill-rule:nonzero;"/><g id="XMLID_69_"><path id="XMLID_71_" d="M2218.33,2253.75l-66.666,0c-18.334,0 -33.334,-15 -33.334,-33.333l0,-66.667c0,-18.333 15,-33.333 33.334,-33.333l66.666,-0c18.334,-0 33.334,15 33.334,33.333l-0,66.667c-0,18.333 -15,33.333 -33.334,33.333Z" style="fill:none;fill-rule:nonzero;stroke:#444e59;stroke-width:16.67px;"/></g><g id="XMLID_13_"><g><path id="XMLID_90_" d="M2035,2053.75l-66.667,0c-18.333,0 -33.333,-15 -33.333,-33.333l0,-66.667c0,-18.333 15,-33.333 33.333,-33.333l66.667,-0c18.333,-0 33.333,15 33.333,33.333l0,66.667c0,18.333 -15,33.333 -33.333,33.333Z" style="fill:#e7534e;fill-rule:nonzero;"/></g></g><path id="XMLID_124_" d="M2035,1920.42l-66.667,-0c-13.333,-0 -25,7.916 -30,19.166l130,23.334l0,-9.167c0,-18.333 -15,-33.333 -33.333,-33.333Z" style="fill:#bf4040;fill-opacity:0.52;fill-rule:nonzero;"/><g id="XMLID_18_"><path id="XMLID_23_" d="M2035,2053.75l-66.667,0c-18.333,0 -33.333,-15 -33.333,-33.333l0,-66.667c0,-18.333 15,-33.333 33.333,-33.333l66.667,-0c18.333,-0 33.333,15 33.333,33.333l0,66.667c0,18.333 -15,33.333 -33.333,33.333Z" style="fill:none;fill-rule:nonzero;stroke:#444e59;stroke-width:16.67px;"/></g><path id="XMLID_10_" d="M2174.17,2157.92l38.333,22.083c5.417,3.333 5.417,11.25 0,14.167l-38.333,22.083c-5.417,3.333 -12.5,-0.833 -12.5,-7.083l-0,-44.167c-0,-6.25 7.083,-10.417 12.5,-7.083Z" style="fill:#fff;fill-rule:nonzero;"/><path id="XMLID_15_" d="M2019.17,2361.25l-35,0c-7.5,0 -13.334,6.25 -13.334,13.333l0,25.834c0,7.5 6.25,13.333 13.334,13.333l1.25,0l-2.917,11.667c-0.417,0.833 0.833,1.666 1.667,0.833l17.916,-12.5l17.917,0c7.5,0 13.333,-6.25 13.333,-13.333l0,-25.834c-0.416,-7.5 -6.666,-13.333 -14.166,-13.333Z" style="fill:#fff;fill-rule:nonzero;"/><path id="XMLID_11_" d="M1790.42,2387.08l15.416,15.417c2.084,2.083 5.417,2.083 7.5,0l34.584,-34.583" style="fill:none;fill-rule:nonzero;stroke:#fff;stroke-width:16.67px;"/><circle id="XMLID_12_" cx="2001.67" cy="1987.08" r="31.25" style="fill:none;stroke:#fff;stroke-width:16.67px;"/><g id="XMLID_131_"><path id="XMLID_115_" d="M1750,1824.58l-0.833,-62.5l-41.667,0.417c-2.5,-7.917 -5.417,-15 -9.583,-22.083l29.166,-30l-44.583,-43.75l-29.167,30c-7.083,-3.75 -14.583,-6.667 -22.5,-8.75l-0.416,-41.667l-62.5,0.833l0.416,41.667c-7.916,2.5 -15,5.417 -22.083,9.583l-30,-29.166l-43.75,44.583l30,29.167c-3.75,7.083 -6.667,14.583 -8.75,22.5l-41.667,0.416l0.834,62.5l41.666,-0.416c2.5,7.916 5.417,15 9.584,22.083l-29.167,30l44.583,43.75l29.167,-30c7.083,3.75 14.583,6.667 22.5,8.75l0.417,41.667l62.5,-0.834l-0.417,-41.666c7.917,-2.5 15,-5.417 22.083,-9.584l30,29.167l43.75,-44.583l-30,-29.167c3.75,-7.083 6.667,-14.583 8.75,-22.5l41.667,-0.417Zm-147.917,19.167c-27.083,0.417 -48.75,-21.25 -49.166,-48.333c-0.417,-27.084 21.25,-48.75 48.333,-49.167c27.083,-0.417 48.75,21.25 49.167,48.333c-0,27.084 -21.667,48.75 -48.334,49.167Z" style="fill:#fff;fill-rule:nonzero;"/><path id="XMLID_191_" d="M1750,1824.58l-0.833,-62.5l-41.667,0.417c-2.5,-7.917 -5.417,-15 -9.583,-22.083l29.166,-30l-44.583,-43.75l-29.167,30c-7.083,-3.75 -14.583,-6.667 -22.5,-8.75l-0.416,-41.667l-62.5,0.833l0.416,41.667c-7.916,2.5 -15,5.417 -22.083,9.583l-30,-29.166l-43.75,44.583l30,29.167c-3.75,7.083 -6.667,14.583 -8.75,22.5l-41.667,0.416l0.834,62.5l41.666,-0.416c2.5,7.916 5.417,15 9.584,22.083l-29.167,30l44.583,43.75l29.167,-30c7.083,3.75 14.583,6.667 22.5,8.75l0.417,41.667l62.5,-0.834l-0.417,-41.666c7.917,-2.5 15,-5.417 22.083,-9.584l30,29.167l43.75,-44.583l-30,-29.167c3.75,-7.083 6.667,-14.583 8.75,-22.5l41.667,-0.417Zm-147.917,19.167c-27.083,0.417 -48.75,-21.25 -49.166,-48.333c-0.417,-27.084 21.25,-48.75 48.333,-49.167c27.083,-0.417 48.75,21.25 49.167,48.333c-0,27.084 -21.667,48.75 -48.334,49.167Z" style="fill:#f09f54;fill-rule:nonzero;"/><path id="XMLID_234_" d="M1750,1824.58l-0.833,-62.5l-41.667,0.417c-2.5,-7.917 -5.417,-15 -9.583,-22.083l29.166,-30l-44.583,-43.75l-29.167,30c-7.083,-3.75 -14.583,-6.667 -22.5,-8.75l-0.416,-41.667l-62.5,0.833l0.416,41.667c-7.916,2.5 -15,5.417 -22.083,9.583l-30,-29.166l-43.75,44.583l30,29.167c-3.75,7.083 -6.667,14.583 -8.75,22.5l-41.667,0.416l0.834,62.5l41.666,-0.416c2.5,7.916 5.417,15 9.584,22.083l-29.167,30l44.583,43.75l29.167,-30c7.083,3.75 14.583,6.667 22.5,8.75l0.417,41.667l62.5,-0.834l-0.417,-41.666c7.917,-2.5 15,-5.417 22.083,-9.584l30,29.167l43.75,-44.583l-30,-29.167c3.75,-7.083 6.667,-14.583 8.75,-22.5l41.667,-0.417Zm-147.917,19.167c-27.083,0.417 -48.75,-21.25 -49.166,-48.333c-0.417,-27.084 21.25,-48.75 48.333,-49.167c27.083,-0.417 48.75,21.25 49.167,48.333c-0,27.084 -21.667,48.75 -48.334,49.167Z" style="fill:#f09f54;fill-rule:nonzero;"/><g id="XMLID_246_" opacity="0.29"><path id="XMLID_250_" d="M1734.17,1762.5c-0,0 -0,0.417 -0,0l15.416,0l0,-0.417l-15.416,0.417Z" style="fill:#f09f54;fill-rule:nonzero;"/><path id="XMLID_252_" d="M1680,1697.08l16.25,-16.666l-13.333,-13.334l-21.667,22.084c6.667,2.083 12.917,4.583 18.75,7.916Z" style="fill:#f09f54;fill-rule:nonzero;"/><path id="XMLID_255_" d="M1627.08,1746.25c-4.583,0 -8.75,0.833 -12.5,1.667c20.417,5.833 35.417,24.166 35.417,46.25c0.417,22.5 -15,41.666 -35.417,47.5c4.167,1.25 9.167,2.083 13.75,1.666c27.084,-0.416 48.334,-22.5 48.334,-49.166c-0,-26.667 -22.5,-47.917 -49.584,-47.917Z" style="fill:#f09f54;fill-rule:nonzero;"/><path id="XMLID_259_" d="M1565,1690l8.333,7.917c7.084,-3.75 14.167,-7.084 22.084,-9.584l-0.417,-41.666l35.833,-0.417l0,-0.417l-62.5,0.834l0.417,41.666c-0.833,0.834 -2.5,1.25 -3.75,1.667Z" style="fill:#f09f54;fill-rule:nonzero;"/><path id="XMLID_263_" d="M1597.5,1902.08c-7.917,-2.083 -15.417,-5 -22.5,-8.75l-7.5,7.917c1.25,0.417 2.5,0.833 3.75,1.25l0.417,41.667l26.25,-0.417l-0.417,-41.667Z" style="fill:#f09f54;fill-rule:nonzero;"/><path id="XMLID_267_" d="M1479.17,1765.42l41.666,-0.417c2.084,-7.917 5,-15.417 8.75,-22.5l-30,-29.167l30.834,-31.25l-13.334,-13.333l-43.75,44.583l30,29.167c-3.75,7.083 -6.666,14.583 -8.75,22.5l-41.666,0.417l0.833,62.5l26.25,-0.417l-0.833,-62.083Z" style="fill:#f09f54;fill-rule:nonzero;"/><path id="XMLID_270_" d="M1682.08,1892.08c-5.833,3.334 -11.666,5.834 -17.916,7.917l21.666,21.25l12.917,-13.333l-16.667,-15.834Z" style="fill:#f09f54;fill-rule:nonzero;"/><path id="XMLID_271_" d="M1501.67,1879.17l29.166,-30c-3.75,-7.084 -7.083,-14.167 -9.583,-22.084l-26.25,0.417c2.5,7.5 5.417,15 9.167,21.667l-29.167,30l44.583,43.75l12.917,-13.334l-30.833,-30.416Z" style="fill:#f09f54;fill-rule:nonzero;"/></g><path id="XMLID_130_" d="M1750,1824.58l-0.833,-62.5l-41.667,0.417c-2.5,-7.917 -5.417,-15 -9.583,-22.083l29.166,-30l-44.583,-43.75l-29.167,30c-7.083,-3.75 -14.583,-6.667 -22.5,-8.75l-0.416,-41.667l-62.5,0.833l0.416,41.667c-7.916,2.5 -15,5.417 -22.083,9.583l-30,-29.166l-43.75,44.583l30,29.167c-3.75,7.083 -6.667,14.583 -8.75,22.5l-41.667,0.416l0.834,62.5l41.666,-0.416c2.5,7.916 5.417,15 9.584,22.083l-29.167,30l44.583,43.75l29.167,-30c7.083,3.75 14.583,6.667 22.5,8.75l0.417,41.667l62.5,-0.834l-0.417,-41.666c7.917,-2.5 15,-5.417 22.083,-9.584l30,29.167l43.75,-44.583l-30,-29.167c3.75,-7.083 6.667,-14.583 8.75,-22.5l41.667,-0.417Zm-147.917,19.167c-27.083,0.417 -48.75,-21.25 -49.166,-48.333c-0.417,-27.084 21.25,-48.75 48.333,-49.167c27.083,-0.417 48.75,21.25 49.167,48.333c-0,27.084 -21.667,48.75 -48.334,49.167Z" style="fill:none;fill-rule:nonzero;stroke:#444e59;stroke-width:16.67px;"/></g><g id="XMLID_190_"><path id="XMLID_183_" d="M1489.58,2725.83l-515.416,0c-17.084,0 -30.834,-13.75 -30.834,-30.833l0,-352.5c0,-17.083 13.75,-30.833 30.834,-30.833l515.833,-0c17.083,-0 30.833,13.75 30.833,30.833l0,352.5c-0.416,17.083 -14.166,30.833 -31.25,30.833Z" style="fill:#444e59;fill-rule:nonzero;"/><path id="XMLID_134_" d="M1520.83,2378.75l-577.5,0l0,-36.25c0,-17.083 13.75,-30.833 30.834,-30.833l515.833,-0c17.083,-0 30.833,13.75 30.833,30.833l0,36.25Z" style="fill:#bcbcbc;fill-rule:nonzero;"/><path id="XMLID_132_" d="M1489.58,2725.83l-515.416,0c-17.084,0 -30.834,-13.75 -30.834,-30.833l0,-352.5c0,-17.083 13.75,-30.833 30.834,-30.833l515.833,-0c17.083,-0 30.833,13.75 30.833,30.833l0,352.5c-0.416,17.083 -14.166,30.833 -31.25,30.833Z" style="fill:none;fill-rule:nonzero;stroke:#444e59;stroke-width:16.67px;"/><path id="XMLID_182_" d="M1489.58,2725.83l-515.416,0c-17.084,0 -30.834,-13.75 -30.834,-30.833l0,-352.5c0,-17.083 13.75,-30.833 30.834,-30.833l515.833,-0c17.083,-0 30.833,13.75 30.833,30.833l0,352.5c-0.416,17.083 -14.166,30.833 -31.25,30.833Z" style="fill:none;fill-rule:nonzero;stroke:#444e59;stroke-width:16.67px;"/><path id="XMLID_133_" d="M1520.83,2378.75l-577.5,0l0,-36.25c0,-17.083 13.75,-30.833 30.834,-30.833l515.833,-0c17.083,-0 30.833,13.75 30.833,30.833l0,36.25Z" style="fill:none;fill-rule:nonzero;stroke:#444e59;stroke-width:16.67px;"/><g id="XMLID_135_"><g id="XMLID_169_"><path id="XMLID_172_" d="M1022.92,2672.92l65,-0" style="fill:none;fill-rule:nonzero;stroke:#fff;stroke-width:16.67px;"/><path id="XMLID_171_" d="M977.083,2672.92l4.584,-0" style="fill:none;fill-rule:nonzero;stroke:#fff;stroke-width:16.67px;"/></g><g id="XMLID_165_"><path id="XMLID_168_" d="M1022.92,2637.08l164.583,0" style="fill:none;fill-rule:nonzero;stroke:#fff;stroke-width:16.67px;"/><path id="XMLID_167_" d="M977.083,2637.08l4.584,0" style="fill:none;fill-rule:nonzero;stroke:#fff;stroke-width:16.67px;"/></g><g id="XMLID_160_"><path id="XMLID_163_" d="M1265.83,2600.83l45,0" style="fill:none;fill-rule:nonzero;stroke:#64bdff;stroke-width:16.67px;"/><path id="XMLID_185_" d="M1143.33,2600.83l83.334,0" style="fill:none;fill-rule:nonzero;stroke:#fff;stroke-width:16.67px;"/><path id="XMLID_164_" d="M1022.92,2600.83l82.5,0" style="fill:none;fill-rule:nonzero;stroke:#ff5f5f;stroke-width:16.67px;"/><path id="XMLID_162_" d="M977.083,2600.83l4.584,0" style="fill:none;fill-rule:nonzero;stroke:#fff;stroke-width:16.67px;"/></g><g id="XMLID_156_"><path id="XMLID_173_" d="M1161.67,2565l200.833,0" style="fill:none;fill-rule:nonzero;stroke:#fff;stroke-width:16.67px;"/><path id="XMLID_159_" d="M1022.92,2565l105,0" style="fill:none;fill-rule:nonzero;stroke:#64bdff;stroke-width:16.67px;"/><path id="XMLID_158_" d="M977.083,2565l4.584,0" style="fill:none;fill-rule:nonzero;stroke:#fff;stroke-width:16.67px;"/></g><g id="XMLID_152_"><path id="XMLID_170_" d="M1161.67,2529.17l75,-0" style="fill:none;fill-rule:nonzero;stroke:#ff5f5f;stroke-width:16.67px;"/><path id="XMLID_155_" d="M1022.92,2529.17l105,-0" style="fill:none;fill-rule:nonzero;stroke:#ffbe78;stroke-width:16.67px;"/><path id="XMLID_154_" d="M977.083,2529.17l4.584,-0" style="fill:none;fill-rule:nonzero;stroke:#fff;stroke-width:16.67px;"/></g><g id="XMLID_148_"><path id="XMLID_157_" d="M1176.25,2493.33l20.417,0" style="fill:none;fill-rule:nonzero;stroke:#64bdff;stroke-width:16.67px;"/><path id="XMLID_161_" d="M1097.08,2493.33l46.25,0" style="fill:none;fill-rule:nonzero;stroke:#ff5f5f;stroke-width:16.67px;"/><path id="XMLID_151_" d="M1022.92,2493.33l38.333,0" style="fill:none;fill-rule:nonzero;stroke:#c383f2;stroke-width:16.67px;"/><path id="XMLID_150_" d="M977.083,2493.33l4.584,0" style="fill:none;fill-rule:nonzero;stroke:#fff;stroke-width:16.67px;"/></g><g id="XMLID_144_"><path id="XMLID_137_" d="M1326.25,2457.08l36.25,0" style="fill:none;fill-rule:nonzero;stroke:#64bdff;stroke-width:16.67px;"/><path id="XMLID_149_" d="M1138.33,2457.08l142.084,0" style="fill:none;fill-rule:nonzero;stroke:#ff5f5f;stroke-width:16.67px;"/><path id="XMLID_147_" d="M1022.92,2457.08l84.583,0" style="fill:none;fill-rule:nonzero;stroke:#ffbe78;stroke-width:16.67px;"/><path id="XMLID_146_" d="M977.083,2457.08l4.584,0" style="fill:none;fill-rule:nonzero;stroke:#fff;stroke-width:16.67px;"/></g><g id="XMLID_139_"><path id="XMLID_145_" d="M1236.67,2421.25l74.166,0" style="fill:none;fill-rule:nonzero;stroke:#ffbe78;stroke-width:16.67px;"/><path id="XMLID_138_" d="M1143.33,2421.25l57.5,0" style="fill:none;fill-rule:nonzero;stroke:#6dbf7b;stroke-width:16.67px;"/><path id="XMLID_140_" d="M1080.83,2421.25l32.5,0" style="fill:none;fill-rule:nonzero;stroke:#ffbe78;stroke-width:16.67px;"/><path id="XMLID_143_" d="M1022.92,2421.25l26.666,0" style="fill:none;fill-rule:nonzero;stroke:#6dbf7b;stroke-width:16.67px;"/><path id="XMLID_142_" d="M977.083,2421.25l4.584,0" style="fill:none;fill-rule:nonzero;stroke:#fff;stroke-width:16.67px;"/></g></g><g id="XMLID_153_"><circle id="XMLID_136_" cx="1000.42" cy="2345.42" r="10.417" style="fill:#e7534e;"/><circle id="XMLID_166_" cx="1037.92" cy="2345.42" r="10.417" style="fill:#444e59;"/><circle id="XMLID_174_" cx="1075.83" cy="2345.42" r="10.417" style="fill:#444e59;"/></g></g><path id="XMLID_176_" d="M1695,2415.42l-373.333,-0c-18.334,-0 -33.334,-15 -33.334,-33.334l0,-337.083c0,-18.333 15,-33.333 33.334,-33.333l373.333,-0c18.333,-0 33.333,15 33.333,33.333l0,337.083c0,18.334 -15,33.334 -33.333,33.334Z" style="fill:#fff;fill-rule:nonzero;"/><path id="XMLID_184_" d="M1695,2415.42l-373.333,-0c-18.334,-0 -33.334,-15 -33.334,-33.334l0,-337.083c0,-18.333 15,-33.333 33.334,-33.333l373.333,-0c18.333,-0 33.333,15 33.333,33.333l0,337.083c0,18.334 -15,33.334 -33.333,33.334Z" style="fill:#fff;fill-rule:nonzero;"/><path id="XMLID_175_" d="M1695,2415.42l-373.333,-0c-18.334,-0 -33.334,-15 -33.334,-33.334l0,-337.083c0,-18.333 15,-33.333 33.334,-33.333l373.333,-0c18.333,-0 33.333,15 33.333,33.333l0,337.083c0,18.334 -15,33.334 -33.333,33.334Z" style="fill:none;fill-rule:nonzero;stroke:#444e59;stroke-width:16.67px;"/><rect id="XMLID_186_" x="1326.25" y="2045.83" width="361.667" height="240.417" style="fill:#9483c4;"/><rect id="XMLID_177_" x="1326.25" y="2045.83" width="361.667" height="240.417" style="fill:none;stroke:#444e59;stroke-width:16.67px;"/><path id="XMLID_179_" d="M1326.25,2324.58l228.333,0" style="fill:none;fill-rule:nonzero;stroke:#444e59;stroke-width:16.67px;"/><path id="XMLID_180_" d="M1326.25,2362.92l135,-0" style="fill:none;fill-rule:nonzero;stroke:#444e59;stroke-width:16.67px;"/><path id="XMLID_178_" d="M1362.5,2243.33l77.917,-77.083l72.5,72.5" style="fill:none;fill-rule:nonzero;stroke:#444e59;stroke-width:16.67px;"/><path id="XMLID_181_" d="M1648.75,2243.33l-94.167,-122.916l-75.416,84.166" style="fill:none;fill-rule:nonzero;stroke:#444e59;stroke-width:16.67px;"/><circle id="XMLID_187_" cx="1647.92" cy="2342.08" r="20.417" style="fill:none;stroke:#444e59;stroke-width:16.67px;"/><circle id="XMLID_189_" cx="1463.33" cy="2120.42" r="25.833" style="fill:#f09f54;"/><circle id="XMLID_188_" cx="1463.33" cy="2120.42" r="25.833" style="fill:none;stroke:#444e59;stroke-width:16.67px;"/><g id="XMLID_194_"><path id="XMLID_198_" d="M1281.25,1892.92l111.667,-0" style="fill:none;fill-rule:nonzero;stroke:#444e59;stroke-width:16.67px;"/><path id="XMLID_195_" d="M1221.67,1892.92l29.583,-0" style="fill:none;fill-rule:nonzero;stroke:#444e59;stroke-width:16.67px;"/><path id="XMLID_199_" d="M1337.08,1841.25l55.834,0" style="fill:none;fill-rule:nonzero;stroke:#444e59;stroke-width:16.67px;"/><path id="XMLID_196_" d="M1292.08,1841.25l16.667,0" style="fill:none;fill-rule:nonzero;stroke:#444e59;stroke-width:16.67px;"/></g><g id="XMLID_200_"><path id="XMLID_205_" d="M1160.42,2219.58l87.083,0" style="fill:none;fill-rule:nonzero;stroke:#444e59;stroke-width:16.67px;"/><path id="XMLID_204_" d="M1114.17,2219.58l22.916,0" style="fill:none;fill-rule:nonzero;stroke:#444e59;stroke-width:16.67px;"/><path id="XMLID_202_" d="M1212.08,2167.92l35.417,-0" style="fill:none;fill-rule:nonzero;stroke:#444e59;stroke-width:16.67px;"/><path id="XMLID_201_" d="M1168.75,2167.92l13.333,-0" style="fill:none;fill-rule:nonzero;stroke:#444e59;stroke-width:16.67px;"/></g><g id="XMLID_229_"><path id="XMLID_233_" d="M2549.17,1615l82.5,0" style="fill:none;fill-rule:nonzero;stroke:#444e59;stroke-width:16.67px;"/><path id="XMLID_232_" d="M2498.33,1615l23.334,0" style="fill:none;fill-rule:nonzero;stroke:#444e59;stroke-width:16.67px;"/><path id="XMLID_231_" d="M2596.25,1563.33l35.417,0" style="fill:none;fill-rule:nonzero;stroke:#444e59;stroke-width:16.67px;"/><path id="XMLID_230_" d="M2553.33,1563.33l12.917,0" style="fill:none;fill-rule:nonzero;stroke:#444e59;stroke-width:16.67px;"/></g><path id="XMLID_211_" d="M2613.33,1906.25l-325.833,0c-20,0 -35.833,-16.25 -35.833,-35.833l-0,-157.917c-0,-20 16.25,-35.833 35.833,-35.833l325.833,-0c20,-0 35.834,16.25 35.834,35.833l-0,157.5c-0,20 -15.834,36.25 -35.834,36.25Z" style="fill:#2fa9ed;fill-rule:nonzero;"/><path id="XMLID_197_" d="M2613.33,1906.25l-325.833,0c-20,0 -35.833,-16.25 -35.833,-35.833l-0,-157.917c-0,-20 16.25,-35.833 35.833,-35.833l325.833,-0c20,-0 35.834,16.25 35.834,35.833l-0,157.5c-0,20 -15.834,36.25 -35.834,36.25Z" style="fill:none;fill-rule:nonzero;stroke:#444e59;stroke-width:12.5px;"/><path id="XMLID_214_" d="M2450.42,1738.33l140.833,0" style="fill:none;fill-rule:nonzero;stroke:#fff;stroke-opacity:0.56;stroke-width:12.5px;"/><path id="XMLID_216_" d="M2450.42,1783.75l93.333,0" style="fill:none;fill-rule:nonzero;stroke:#fff;stroke-opacity:0.56;stroke-width:12.5px;"/><g id="XMLID_224_" opacity="0.56"><path id="XMLID_217_" d="M2521.25,1851.67l-56.667,-0c-7.5,-0 -13.75,-6.25 -13.75,-13.75c0,-7.5 6.25,-13.75 13.75,-13.75l56.667,-0c7.5,-0 13.75,6.25 13.75,13.75c0,7.5 -5.833,13.75 -13.75,13.75Z" style="fill:#fff;fill-rule:nonzero;"/><path id="XMLID_213_" d="M2521.25,1851.67l-56.667,-0c-7.5,-0 -13.75,-6.25 -13.75,-13.75c0,-7.5 6.25,-13.75 13.75,-13.75l56.667,-0c7.5,-0 13.75,6.25 13.75,13.75c0,7.5 -5.833,13.75 -13.75,13.75Z" style="fill:none;fill-rule:nonzero;stroke:#fff;stroke-width:12.5px;"/></g><g id="XMLID_226_"><path id="XMLID_206_" d="M2391.67,1853.75l-74.584,0c-10.833,0 -19.166,-8.75 -19.166,-19.167l-0,-87.083c-0,-10.833 8.75,-19.167 19.166,-19.167l74.584,0c10.833,0 19.166,8.75 19.166,19.167l0,87.083c0,10.417 -8.333,19.167 -19.166,19.167Z" style="fill:none;fill-rule:nonzero;stroke:#fff;stroke-width:12.5px;"/><circle id="XMLID_225_" cx="2354.58" cy="1776.67" r="20" style="fill:none;stroke:#fff;stroke-width:12.5px;"/><path id="XMLID_227_" d="M2316.67,1851.67c-0,-20.834 17.083,-37.917 37.916,-37.917c20.834,-0 37.917,17.083 37.917,37.917" style="fill:none;fill-rule:nonzero;stroke:#fff;stroke-width:12.5px;"/></g></g><g id="XMLID_238_"></g></svg>